<svg xmlns="http://www.w3.org/2000/svg" width="484" height="99" viewBox="0 0 484 99">
    <defs>
        <linearGradient id="a" x1="38.772%" x2="99.746%" y1="36.946%" y2="100%">
            <stop offset="0%" stop-opacity="0"/>
            <stop offset="10.271%" stop-opacity=".054"/>
            <stop offset="19.657%" stop-opacity=".106"/>
            <stop offset="30.31%" stop-opacity=".192"/>
            <stop offset="38.65%" stop-opacity=".245"/>
            <stop offset="100%"/>
        </linearGradient>
    </defs>
    <g fill="none" fill-rule="evenodd">
        <path fill="#E42E2C" d="M15.064 84.396c8.848 8.868 21.072 14.352 34.573 14.352 13.502 0 25.726-5.484 34.574-14.352L153.359 15.1C144.51 6.233 132.287.748 118.785.748c-13.502 0-25.726 5.485-34.574 14.352C75.363 6.233 63.14.748 49.638.748 20.623.748 2.263 22.611.748 50.475.94 63.717 6.374 75.688 15.064 84.396z"/>
        <path fill="url(#a)" d="M84.534 15.16C75.652 6.256 63.381.748 49.827.748 20.7.748 2.269 22.703.748 50.684c.193 13.298 5.648 25.32 14.37 34.064L84.535 15.16z"/>
        <g>
            <path fill="#E42E2C" d="M161 49.03c.03-15.455 12.556-27.976 28.005-27.976 15.466 0 28.004 12.55 28.004 28.03 0 15.482-12.538 28.031-28.004 28.031-7.839 0-14.924-3.224-20.007-8.419v25.286H161V49.031zm28.058-20.078c-11.078 0-20.06 8.99-20.06 20.079s8.982 20.079 20.06 20.079c11.08 0 20.061-8.99 20.061-20.08 0-11.089-8.982-20.078-20.06-20.078zm35.949 19.796h.002c.18-15.326 12.648-27.694 28.002-27.694 2.519 0 4.96.333 7.281.957l-2.039 7.618a20.065 20.065 0 0 0-5.188-.678c-10.984 0-19.907 8.838-20.058 19.797h-.002v28.367h-7.998V48.748zm43.284-27.786h7.998v56.153h-7.998V20.962zm4.046-6.881a5.038 5.038 0 0 1-5.036-5.04A5.038 5.038 0 0 1 272.337 4a5.038 5.038 0 0 1 5.036 5.04 5.038 5.038 0 0 1-5.036 5.04zm44.47 54.046l-4.462 8.943-4.479-8.943-23.58-47.078-.042-.087h8.94l.043.087 19.101 38.136 19.027-38.136.043-.087h8.94l-.043.087-23.488 47.078zm55.066 0l-23.58-47.078-.043-.087h8.941l.043.087 19.101 38.136 19.027-38.136.043-.087h8.94l-.043.087-23.488 47.078-4.462 8.943-8.438 16.912h-8.94l12.9-25.855z"/>
            <path fill="#676767" d="M412.3 20.962h7.999v56.153H412.3V20.962zm4.047-6.881a5.038 5.038 0 0 1-5.036-5.04A5.038 5.038 0 0 1 416.347 4a5.038 5.038 0 0 1 5.036 5.04 5.038 5.038 0 0 1-5.036 5.04zm39.954 6.973c7.839 0 14.924 3.225 20.007 8.42V4.024h7.998v44.723h-.005c.002.113.005.225.005.337 0 15.481-12.538 28.03-28.005 28.03-15.467 0-28.005-12.549-28.005-28.03 0-15.48 12.538-28.03 28.005-28.03zm20.11 27.694h-.104v-1.81c-1.045-10.106-9.579-17.986-19.952-17.986-11.079 0-20.06 8.99-20.06 20.079s8.981 20.079 20.06 20.079c11.079 0 20.06-8.99 20.06-20.08l-.003-.282z"/>
        </g>
    </g>
</svg>
